# xmcd
#
# Track frame offsets:
#	150
#	10215
#	25997
#	39927
#	55322
#	71320
#	78335
#	95235
#	103677
#	119335
#
# Disc length: 1767 seconds
#
# Revision: 2
# Processed by: cddbd v1.5.2PL0 Copyright (c) Steve Scherf et al.
# Submitted via: EZCDAudioConverter 6.0.2.1
#
DISCID=7b06e50a
DTITLE=Boxcar Willie - Boxcar Country
DYEAR=1998
DGENRE=Country
TTITLE0=King of The Road
TTITLE1=Warbash Cannonball
TTITLE2=You Are My Sunshine
TTITLE3=Boxcar Blues
TTITLE4=Your Cheatin' Heart
TTITLE5=I Saw The Light
TTITLE6=Mule Train
TTITLE7=Hey Good Lookin'
TTITLE8=Kaw-Liga
TTITLE9=San Antonio Rose
EXTD=
EXTT0=
EXTT1=
EXTT2=
EXTT3=
EXTT4=
EXTT5=
EXTT6=
EXTT7=
EXTT8=
EXTT9=
PLAYORDER=
